# xmcd
#
# Track frame offsets: 
#        150
#        20425
#        34542
#        57660
#        73867
#        89855
#        114100
#        132897
#        151980
#        183780
#        202705
#        223737
#        241900
#        257275
#        270885
#        290807
#
# Disc length: 4112 seconds
#
# Revision: 0
# Processed by: cddbd v1.4PL0 Copyright (c) Steve Scherf et al.
# Submitted via: ExactAudioCopy v0.90a11
#
DISCID=dd100e10
DTITLE=John Denver - The Best Of
DYEAR=1900
DGENRE=
TTITLE0=Rocky Mountain High
TTITLE1=Country Roads
TTITLE2=Back Home Again
TTITLE3=I Guess He'd Rather B. In Colorado
TTITLE4=Matthew
TTITLE5=Sunshine On My Shoulders
TTITLE6=Darcy Farrow
TTITLE7=Wild Montana Skies
TTITLE8=Medley: Leaving on a Jet Plane/Goodbye Again
TTITLE9=Bet On The Blues
TTITLE10=I'd Rather Be a Cowboy (Lady's Chains)
TTITLE11=Fly Away
TTITLE12=I'm Sorry
TTITLE13=Annie's Song
TTITLE14=Poems, Prayers and Promises
TTITLE15=Calypso
EXTD=
EXTT0=
EXTT1=
EXTT2=
EXTT3=
EXTT4=
EXTT5=
EXTT6=
EXTT7=
EXTT8=
EXTT9=
EXTT10=
EXTT11=
EXTT12=
EXTT13=
EXTT14=
EXTT15=
PLAYORDER=
